<?xml version="1.0" encoding="us-ascii" standalone="no"?><svg xmlns="http://www.w3.org/2000/svg" xmlns:xlink="http://www.w3.org/1999/xlink" contentStyleType="text/css" height="868px" preserveAspectRatio="none" style="width:1865px;height:868px;background:#FFFFFF;" version="1.1" viewBox="0 0 1865 868" width="1865px" zoomAndPan="magnify"><defs/><g><text fill="#000000" font-family="sans-serif" font-size="14" font-weight="bold" lengthAdjust="spacing" textLength="321" x="770.5" y="32.9951">PR Cases for a model file (per-path flow)</text><path d="M1253.8125,47.2969 L1253.8125,78.5625 L1233.8125,82.5625 L1253.8125,86.5625 L1253.8125,117.8281 A0,0 0 0 0 1253.8125,117.8281 L1503.8125,117.8281 A0,0 0 0 0 1503.8125,117.8281 L1503.8125,57.2969 L1493.8125,47.2969 L1253.8125,47.2969 A0,0 0 0 0 1253.8125,47.2969 " fill="#FEFFDD" style="stroke:#181818;stroke-width:0.5;"/><path d="M1493.8125,47.2969 L1493.8125,57.2969 L1503.8125,57.2969 L1493.8125,47.2969 " fill="#FEFFDD" style="stroke:#181818;stroke-width:0.5;"/><text fill="#000000" font-family="sans-serif" font-size="13" lengthAdjust="spacing" textLength="229" x="1259.8125" y="64.3638">Terminology (see doc/README.md):</text><text fill="#000000" font-family="sans-serif" font-size="13" lengthAdjust="spacing" textLength="144" x="1259.8125" y="79.4966">- source = PR head ref</text><text fill="#000000" font-family="sans-serif" font-size="13" lengthAdjust="spacing" textLength="139" x="1259.8125" y="94.6294">- target = PR base ref</text><text fill="#000000" font-family="sans-serif" font-size="13" lengthAdjust="spacing" textLength="222" x="1259.8125" y="109.7622">- merge base = common ancestor</text><ellipse cx="1223.8125" cy="82.5625" fill="#222222" rx="10" ry="10" style="stroke:#222222;stroke-width:1.0;"/><rect fill="#F1F1F1" height="33.9688" rx="12.5" ry="12.5" style="stroke:#181818;stroke-width:0.5;" width="370" x="1038.8125" y="137.8281"/><text fill="#000000" font-family="sans-serif" font-size="12" lengthAdjust="spacing" textLength="350" x="1048.8125" y="158.9668">Is path relevant (matches configured model extension)?</text><polygon fill="#F1F1F1" points="1196.8125,191.7969,1250.8125,191.7969,1262.8125,203.7969,1250.8125,215.7969,1196.8125,215.7969,1184.8125,203.7969,1196.8125,191.7969" style="stroke:#181818;stroke-width:0.5;"/><text fill="#000000" font-family="sans-serif" font-size="11" lengthAdjust="spacing" textLength="54" x="1196.8125" y="207.605">Relevant?</text><text fill="#000000" font-family="sans-serif" font-size="11" lengthAdjust="spacing" textLength="20" x="1164.8125" y="201.2026">yes</text><text fill="#000000" font-family="sans-serif" font-size="11" lengthAdjust="spacing" textLength="14" x="1262.8125" y="201.2026">no</text><rect fill="#F1F1F1" height="33.9688" rx="12.5" ry="12.5" style="stroke:#181818;stroke-width:0.5;" width="374" x="487.625" y="225.7969"/><text fill="#000000" font-family="sans-serif" font-size="12" lengthAdjust="spacing" textLength="354" x="497.625" y="246.9355">Determine file status (added/deleted/modified/renamed)</text><polygon fill="#F1F1F1" points="623.125,279.7656,726.125,279.7656,738.125,291.7656,726.125,303.7656,623.125,303.7656,611.125,291.7656,623.125,279.7656" style="stroke:#181818;stroke-width:0.5;"/><text fill="#000000" font-family="sans-serif" font-size="11" lengthAdjust="spacing" textLength="103" x="623.125" y="295.5737">Added or deleted?</text><text fill="#000000" font-family="sans-serif" font-size="11" lengthAdjust="spacing" textLength="20" x="591.125" y="289.1714">yes</text><text fill="#000000" font-family="sans-serif" font-size="11" lengthAdjust="spacing" textLength="14" x="738.125" y="289.1714">no</text><rect fill="#F1F1F1" height="33.9688" rx="12.5" ry="12.5" style="stroke:#181818;stroke-width:0.5;" width="307" x="11" y="313.7656"/><text fill="#000000" font-family="sans-serif" font-size="12" lengthAdjust="spacing" textLength="287" x="21" y="334.9043">Report outcome: creation/deletion at file level</text><rect fill="#F1F1F1" height="33.9688" rx="12.5" ry="12.5" style="stroke:#181818;stroke-width:0.5;" width="212" x="1118.75" y="313.7656"/><text fill="#000000" font-family="sans-serif" font-size="12" lengthAdjust="spacing" textLength="192" x="1128.75" y="334.9043">Resolve metamodel for this file</text><polygon fill="#F1F1F1" points="1164.25,367.7344,1285.25,367.7344,1297.25,379.7344,1285.25,391.7344,1164.25,391.7344,1152.25,379.7344,1164.25,367.7344" style="stroke:#181818;stroke-width:0.5;"/><text fill="#000000" font-family="sans-serif" font-size="11" lengthAdjust="spacing" textLength="121" x="1164.25" y="383.5425">Metamodel resolved?</text><text fill="#000000" font-family="sans-serif" font-size="11" lengthAdjust="spacing" textLength="20" x="1132.25" y="377.1401">yes</text><text fill="#000000" font-family="sans-serif" font-size="11" lengthAdjust="spacing" textLength="14" x="1297.25" y="377.1401">no</text><rect fill="#F1F1F1" height="33.9688" rx="12.5" ry="12.5" style="stroke:#181818;stroke-width:0.5;" width="292" x="807.5" y="401.7344"/><text fill="#000000" font-family="sans-serif" font-size="12" lengthAdjust="spacing" textLength="272" x="817.5" y="422.873">Load source and target versions as models</text><polygon fill="#F1F1F1" points="897,455.7031,1010,455.7031,1022,467.7031,1010,479.7031,897,479.7031,885,467.7031,897,455.7031" style="stroke:#181818;stroke-width:0.5;"/><text fill="#000000" font-family="sans-serif" font-size="11" lengthAdjust="spacing" textLength="113" x="897" y="471.5112">Both versions load?</text><text fill="#000000" font-family="sans-serif" font-size="11" lengthAdjust="spacing" textLength="20" x="865" y="465.1089">yes</text><text fill="#000000" font-family="sans-serif" font-size="11" lengthAdjust="spacing" textLength="14" x="1022" y="465.1089">no</text><rect fill="#F1F1F1" height="33.9688" rx="12.5" ry="12.5" style="stroke:#181818;stroke-width:0.5;" width="345" x="520.5" y="489.7031"/><text fill="#000000" font-family="sans-serif" font-size="12" lengthAdjust="spacing" textLength="325" x="530.5" y="510.8418">Compute merge base and decide comparison mode</text><polygon fill="#F1F1F1" points="553,543.6719,833,543.6719,845,555.6719,833,567.6719,553,567.6719,541,555.6719,553,543.6719" style="stroke:#181818;stroke-width:0.5;"/><text fill="#000000" font-family="sans-serif" font-size="11" lengthAdjust="spacing" textLength="280" x="553" y="559.48">Both source and target changed vs merge base?</text><text fill="#000000" font-family="sans-serif" font-size="11" lengthAdjust="spacing" textLength="20" x="521" y="553.0776">yes</text><text fill="#000000" font-family="sans-serif" font-size="11" lengthAdjust="spacing" textLength="14" x="845" y="553.0776">no</text><rect fill="#F1F1F1" height="33.9688" rx="12.5" ry="12.5" style="stroke:#181818;stroke-width:0.5;" width="355" x="328" y="577.6719"/><text fill="#000000" font-family="sans-serif" font-size="12" lengthAdjust="spacing" textLength="335" x="338" y="598.8105">Case: 3-way comparison &#8594; &lt;3-way-comparison.puml&gt;</text><rect fill="#F1F1F1" height="33.9688" rx="12.5" ry="12.5" style="stroke:#181818;stroke-width:0.5;" width="355" x="703" y="577.6719"/><text fill="#000000" font-family="sans-serif" font-size="12" lengthAdjust="spacing" textLength="335" x="713" y="598.8105">Case: 2-way comparison &#8594; &lt;2-way-comparison.puml&gt;</text><polygon fill="#F1F1F1" points="693,617.6406,705,629.6406,693,641.6406,681,629.6406,693,617.6406" style="stroke:#181818;stroke-width:0.5;"/><rect fill="#F1F1F1" height="33.9688" rx="12.5" ry="12.5" style="stroke:#181818;stroke-width:0.5;" width="169" x="1129.5" y="489.7031"/><text fill="#000000" font-family="sans-serif" font-size="12" lengthAdjust="spacing" textLength="149" x="1139.5" y="510.8418">Case: parse/load failure</text><rect fill="#F1F1F1" height="33.9688" rx="12.5" ry="12.5" style="stroke:#181818;stroke-width:0.5;" width="252" x="1088" y="543.6719"/><text fill="#000000" font-family="sans-serif" font-size="12" lengthAdjust="spacing" textLength="232" x="1098" y="564.8105">Report outcome: analysis incomplete</text><polygon fill="#F1F1F1" points="953.5,647.6406,965.5,659.6406,953.5,671.6406,941.5,659.6406,953.5,647.6406" style="stroke:#181818;stroke-width:0.5;"/><rect fill="#F1F1F1" height="33.9688" rx="12.5" ry="12.5" style="stroke:#181818;stroke-width:0.5;" width="239" x="1376.5" y="401.7344"/><text fill="#000000" font-family="sans-serif" font-size="12" lengthAdjust="spacing" textLength="219" x="1386.5" y="422.873">Case: metamodel resolution failure</text><rect fill="#F1F1F1" height="33.9688" rx="12.5" ry="12.5" style="stroke:#181818;stroke-width:0.5;" width="252" x="1370" y="455.7031"/><text fill="#000000" font-family="sans-serif" font-size="12" lengthAdjust="spacing" textLength="232" x="1380" y="476.8418">Report outcome: analysis incomplete</text><polygon fill="#F1F1F1" points="1224.75,677.6406,1236.75,689.6406,1224.75,701.6406,1212.75,689.6406,1224.75,677.6406" style="stroke:#181818;stroke-width:0.5;"/><polygon fill="#F1F1F1" points="674.625,707.6406,686.625,719.6406,674.625,731.6406,662.625,719.6406,674.625,707.6406" style="stroke:#181818;stroke-width:0.5;"/><rect fill="#F1F1F1" height="33.9688" rx="12.5" ry="12.5" style="stroke:#181818;stroke-width:0.5;" width="222" x="1632" y="225.7969"/><text fill="#000000" font-family="sans-serif" font-size="12" lengthAdjust="spacing" textLength="202" x="1642" y="246.9355">Skip: not a configured model file</text><polygon fill="#F1F1F1" points="1223.8125,737.6406,1235.8125,749.6406,1223.8125,761.6406,1211.8125,749.6406,1223.8125,737.6406" style="stroke:#181818;stroke-width:0.5;"/><rect fill="#F1F1F1" height="33.9688" rx="12.5" ry="12.5" style="stroke:#181818;stroke-width:0.5;" width="268" x="1089.8125" y="781.6406"/><text fill="#000000" font-family="sans-serif" font-size="12" lengthAdjust="spacing" textLength="248" x="1099.8125" y="802.7793">Report posted/updated as PR comment</text><ellipse cx="1223.8125" cy="846.6094" fill="none" rx="11" ry="11" style="stroke:#222222;stroke-width:1.0;"/><ellipse cx="1223.8125" cy="846.6094" fill="#222222" rx="6" ry="6" style="stroke:#222222;stroke-width:1.0;"/><line style="stroke:#181818;stroke-width:1.0;" x1="1223.8125" x2="1223.8125" y1="92.5625" y2="137.8281"/><polygon fill="#181818" points="1219.8125,127.8281,1223.8125,137.8281,1227.8125,127.8281,1223.8125,131.8281" style="stroke:#181818;stroke-width:1.0;"/><line style="stroke:#181818;stroke-width:1.0;" x1="541" x2="505.5" y1="555.6719" y2="555.6719"/><line style="stroke:#181818;stroke-width:1.0;" x1="505.5" x2="505.5" y1="555.6719" y2="577.6719"/><polygon fill="#181818" points="501.5,567.6719,505.5,577.6719,509.5,567.6719,505.5,571.6719" style="stroke:#181818;stroke-width:1.0;"/><line style="stroke:#181818;stroke-width:1.0;" x1="845" x2="880.5" y1="555.6719" y2="555.6719"/><line style="stroke:#181818;stroke-width:1.0;" x1="880.5" x2="880.5" y1="555.6719" y2="577.6719"/><polygon fill="#181818" points="876.5,567.6719,880.5,577.6719,884.5,567.6719,880.5,571.6719" style="stroke:#181818;stroke-width:1.0;"/><line style="stroke:#181818;stroke-width:1.0;" x1="505.5" x2="505.5" y1="611.6406" y2="629.6406"/><line style="stroke:#181818;stroke-width:1.0;" x1="505.5" x2="681" y1="629.6406" y2="629.6406"/><polygon fill="#181818" points="671,625.6406,681,629.6406,671,633.6406,675,629.6406" style="stroke:#181818;stroke-width:1.0;"/><line style="stroke:#181818;stroke-width:1.0;" x1="880.5" x2="880.5" y1="611.6406" y2="629.6406"/><line style="stroke:#181818;stroke-width:1.0;" x1="880.5" x2="705" y1="629.6406" y2="629.6406"/><polygon fill="#181818" points="715,625.6406,705,629.6406,715,633.6406,711,629.6406" style="stroke:#181818;stroke-width:1.0;"/><line style="stroke:#181818;stroke-width:1.0;" x1="693" x2="693" y1="523.6719" y2="543.6719"/><polygon fill="#181818" points="689,533.6719,693,543.6719,697,533.6719,693,537.6719" style="stroke:#181818;stroke-width:1.0;"/><line style="stroke:#181818;stroke-width:1.0;" x1="1214" x2="1214" y1="523.6719" y2="543.6719"/><polygon fill="#181818" points="1210,533.6719,1214,543.6719,1218,533.6719,1214,537.6719" style="stroke:#181818;stroke-width:1.0;"/><line style="stroke:#181818;stroke-width:1.0;" x1="885" x2="693" y1="467.7031" y2="467.7031"/><line style="stroke:#181818;stroke-width:1.0;" x1="693" x2="693" y1="467.7031" y2="489.7031"/><polygon fill="#181818" points="689,479.7031,693,489.7031,697,479.7031,693,483.7031" style="stroke:#181818;stroke-width:1.0;"/><line style="stroke:#181818;stroke-width:1.0;" x1="1022" x2="1214" y1="467.7031" y2="467.7031"/><line style="stroke:#181818;stroke-width:1.0;" x1="1214" x2="1214" y1="467.7031" y2="489.7031"/><polygon fill="#181818" points="1210,479.7031,1214,489.7031,1218,479.7031,1214,483.7031" style="stroke:#181818;stroke-width:1.0;"/><line style="stroke:#181818;stroke-width:1.0;" x1="693" x2="693" y1="641.6406" y2="659.6406"/><line style="stroke:#181818;stroke-width:1.0;" x1="693" x2="941.5" y1="659.6406" y2="659.6406"/><polygon fill="#181818" points="931.5,655.6406,941.5,659.6406,931.5,663.6406,935.5,659.6406" style="stroke:#181818;stroke-width:1.0;"/><line style="stroke:#181818;stroke-width:1.0;" x1="1214" x2="1214" y1="577.6406" y2="659.6406"/><line style="stroke:#181818;stroke-width:1.0;" x1="1214" x2="965.5" y1="659.6406" y2="659.6406"/><polygon fill="#181818" points="975.5,655.6406,965.5,659.6406,975.5,663.6406,971.5,659.6406" style="stroke:#181818;stroke-width:1.0;"/><line style="stroke:#181818;stroke-width:1.0;" x1="953.5" x2="953.5" y1="435.7031" y2="455.7031"/><polygon fill="#181818" points="949.5,445.7031,953.5,455.7031,957.5,445.7031,953.5,449.7031" style="stroke:#181818;stroke-width:1.0;"/><line style="stroke:#181818;stroke-width:1.0;" x1="1496" x2="1496" y1="435.7031" y2="455.7031"/><polygon fill="#181818" points="1492,445.7031,1496,455.7031,1500,445.7031,1496,449.7031" style="stroke:#181818;stroke-width:1.0;"/><line style="stroke:#181818;stroke-width:1.0;" x1="1152.25" x2="953.5" y1="379.7344" y2="379.7344"/><line style="stroke:#181818;stroke-width:1.0;" x1="953.5" x2="953.5" y1="379.7344" y2="401.7344"/><polygon fill="#181818" points="949.5,391.7344,953.5,401.7344,957.5,391.7344,953.5,395.7344" style="stroke:#181818;stroke-width:1.0;"/><line style="stroke:#181818;stroke-width:1.0;" x1="1297.25" x2="1496" y1="379.7344" y2="379.7344"/><line style="stroke:#181818;stroke-width:1.0;" x1="1496" x2="1496" y1="379.7344" y2="401.7344"/><polygon fill="#181818" points="1492,391.7344,1496,401.7344,1500,391.7344,1496,395.7344" style="stroke:#181818;stroke-width:1.0;"/><line style="stroke:#181818;stroke-width:1.0;" x1="953.5" x2="953.5" y1="671.6406" y2="689.6406"/><line style="stroke:#181818;stroke-width:1.0;" x1="953.5" x2="1212.75" y1="689.6406" y2="689.6406"/><polygon fill="#181818" points="1202.75,685.6406,1212.75,689.6406,1202.75,693.6406,1206.75,689.6406" style="stroke:#181818;stroke-width:1.0;"/><line style="stroke:#181818;stroke-width:1.0;" x1="1496" x2="1496" y1="489.6719" y2="689.6406"/><line style="stroke:#181818;stroke-width:1.0;" x1="1496" x2="1236.75" y1="689.6406" y2="689.6406"/><polygon fill="#181818" points="1246.75,685.6406,1236.75,689.6406,1246.75,693.6406,1242.75,689.6406" style="stroke:#181818;stroke-width:1.0;"/><line style="stroke:#181818;stroke-width:1.0;" x1="1224.75" x2="1224.75" y1="347.7344" y2="367.7344"/><polygon fill="#181818" points="1220.75,357.7344,1224.75,367.7344,1228.75,357.7344,1224.75,361.7344" style="stroke:#181818;stroke-width:1.0;"/><line style="stroke:#181818;stroke-width:1.0;" x1="611.125" x2="164.5" y1="291.7656" y2="291.7656"/><line style="stroke:#181818;stroke-width:1.0;" x1="164.5" x2="164.5" y1="291.7656" y2="313.7656"/><polygon fill="#181818" points="160.5,303.7656,164.5,313.7656,168.5,303.7656,164.5,307.7656" style="stroke:#181818;stroke-width:1.0;"/><line style="stroke:#181818;stroke-width:1.0;" x1="738.125" x2="1224.75" y1="291.7656" y2="291.7656"/><line style="stroke:#181818;stroke-width:1.0;" x1="1224.75" x2="1224.75" y1="291.7656" y2="313.7656"/><polygon fill="#181818" points="1220.75,303.7656,1224.75,313.7656,1228.75,303.7656,1224.75,307.7656" style="stroke:#181818;stroke-width:1.0;"/><line style="stroke:#181818;stroke-width:1.0;" x1="164.5" x2="164.5" y1="347.7344" y2="719.6406"/><line style="stroke:#181818;stroke-width:1.0;" x1="164.5" x2="662.625" y1="719.6406" y2="719.6406"/><polygon fill="#181818" points="652.625,715.6406,662.625,719.6406,652.625,723.6406,656.625,719.6406" style="stroke:#181818;stroke-width:1.0;"/><line style="stroke:#181818;stroke-width:1.0;" x1="1224.75" x2="1224.75" y1="701.6406" y2="719.6406"/><line style="stroke:#181818;stroke-width:1.0;" x1="1224.75" x2="686.625" y1="719.6406" y2="719.6406"/><polygon fill="#181818" points="696.625,715.6406,686.625,719.6406,696.625,723.6406,692.625,719.6406" style="stroke:#181818;stroke-width:1.0;"/><line style="stroke:#181818;stroke-width:1.0;" x1="674.625" x2="674.625" y1="259.7656" y2="279.7656"/><polygon fill="#181818" points="670.625,269.7656,674.625,279.7656,678.625,269.7656,674.625,273.7656" style="stroke:#181818;stroke-width:1.0;"/><line style="stroke:#181818;stroke-width:1.0;" x1="1184.8125" x2="674.625" y1="203.7969" y2="203.7969"/><line style="stroke:#181818;stroke-width:1.0;" x1="674.625" x2="674.625" y1="203.7969" y2="225.7969"/><polygon fill="#181818" points="670.625,215.7969,674.625,225.7969,678.625,215.7969,674.625,219.7969" style="stroke:#181818;stroke-width:1.0;"/><line style="stroke:#181818;stroke-width:1.0;" x1="1262.8125" x2="1743" y1="203.7969" y2="203.7969"/><line style="stroke:#181818;stroke-width:1.0;" x1="1743" x2="1743" y1="203.7969" y2="225.7969"/><polygon fill="#181818" points="1739,215.7969,1743,225.7969,1747,215.7969,1743,219.7969" style="stroke:#181818;stroke-width:1.0;"/><line style="stroke:#181818;stroke-width:1.0;" x1="674.625" x2="674.625" y1="731.6406" y2="749.6406"/><line style="stroke:#181818;stroke-width:1.0;" x1="674.625" x2="1211.8125" y1="749.6406" y2="749.6406"/><polygon fill="#181818" points="1201.8125,745.6406,1211.8125,749.6406,1201.8125,753.6406,1205.8125,749.6406" style="stroke:#181818;stroke-width:1.0;"/><line style="stroke:#181818;stroke-width:1.0;" x1="1743" x2="1743" y1="259.7656" y2="749.6406"/><line style="stroke:#181818;stroke-width:1.0;" x1="1743" x2="1235.8125" y1="749.6406" y2="749.6406"/><polygon fill="#181818" points="1245.8125,745.6406,1235.8125,749.6406,1245.8125,753.6406,1241.8125,749.6406" style="stroke:#181818;stroke-width:1.0;"/><line style="stroke:#181818;stroke-width:1.0;" x1="1223.8125" x2="1223.8125" y1="171.7969" y2="191.7969"/><polygon fill="#181818" points="1219.8125,181.7969,1223.8125,191.7969,1227.8125,181.7969,1223.8125,185.7969" style="stroke:#181818;stroke-width:1.0;"/><line style="stroke:#181818;stroke-width:1.0;" x1="1223.8125" x2="1223.8125" y1="761.6406" y2="781.6406"/><polygon fill="#181818" points="1219.8125,771.6406,1223.8125,781.6406,1227.8125,771.6406,1223.8125,775.6406" style="stroke:#181818;stroke-width:1.0;"/><line style="stroke:#181818;stroke-width:1.0;" x1="1223.8125" x2="1223.8125" y1="815.6094" y2="835.6094"/><polygon fill="#181818" points="1219.8125,825.6094,1223.8125,835.6094,1227.8125,825.6094,1223.8125,829.6094" style="stroke:#181818;stroke-width:1.0;"/><!--SRC=[ZLHBRjmm3Dth55pQYya0wSvk6gH95WKQe9Zs0gf5sq9bqP3eIUS2FK2Fs9EKiZsURv6kR8ZaUu-FbDYoG_YoWKSTCK9D0JHqPD11RIMIzHXMlUOMQaUlkLAHTM2bF352i4tB2k0RXivwSjJi88k8OAXQRvuVdbwURpgJ5vAoWaX3g13k4bcBsa30UWm8O8Cy1RwBYYNGeGIcepkegEl8W_OLHgQWq1j88fGgFaKO5GPqkDMU8UiqLwsqKv6lRJC4D7DF-9FHHqi-lo-LhI7Rp3NtEN2B7h8TnbpOYoVaiIkSV92sUOYGQMFGh0LAmcOjeBQsyXFGwmvDNYgfJRWFAG_4pJdr75yODjXJOA21fJSie0geMQHDw3OronEvI4HNIXKwyIBpj214SbiKerZFCnD6RcqSwyenAwbvMHB2L795Z-1z9XdBF2Sj_iwJsM98baNGSR8nbdD5mlv8OlsIuWJY6hQWFrBN3up7Oqqa1YjhCCstry56QJjnb4lTmd4fh6grRyJcRJm2lSwU-2LOmBlLgzuTi_tvzHlUZwUhm-bDFtJkmq74gV4dWBTN0M_V0lIoEUfVu3Eqr4PS9qkXrjR97Xy0BjP7U-rsKKPlVQ9DMxVFFf2TKyr4tUb-3EFsdL7-F-6URlggOyxYwm_R5-dYoZDpSJkdfPtBzdmznNJLXjve-QOTb7SYlGRekKpl4VL_0G00]--></g></svg>