<?plantuml 1.2026.2?><svg xmlns="http://www.w3.org/2000/svg" xmlns:xlink="http://www.w3.org/1999/xlink" contentStyleType="text/css" data-diagram-type="ACTIVITY" height="898px" preserveAspectRatio="none" style="width:1703px;height:898px;background:#FFFFFF;" version="1.1" viewBox="0 0 1703 898" width="1703px" zoomAndPan="magnify"><title>PR Cases for a model file (per-path flow)</title><defs/><g><g class="title" data-source-line="1"><text fill="#000000" font-family="sans-serif" font-size="14" font-weight="bold" lengthAdjust="spacing" textLength="278.4449" x="711.1353" y="34.9659">PR Cases for a model file (per-path flow)</text></g><path d="M1147.6571,50.0679 L1147.6571,86.4799 L1127.6571,90.4799 L1147.6571,94.4799 L1147.6571,130.892 A0,0 0 0 0 1147.6571,130.892 L1387.4733,130.892 A0,0 0 0 0 1387.4733,130.892 L1387.4733,60.0679 L1377.4733,50.0679 L1147.6571,50.0679 A0,0 0 0 0 1147.6571,50.0679" fill="#FEFFDD" style="stroke:#181818;stroke-width:0.5;"/><path d="M1377.4733,50.0679 L1377.4733,60.0679 L1387.4733,60.0679 L1377.4733,50.0679" fill="#FEFFDD" style="stroke:#181818;stroke-width:0.5;"/><text fill="#000000" font-family="sans-serif" font-size="13" lengthAdjust="spacing" textLength="218.8162" x="1153.6571" y="68.9649">Terminology (see doc/README.md):</text><text fill="#000000" font-family="sans-serif" font-size="13" lengthAdjust="spacing" textLength="133.3671" x="1153.6571" y="86.6709">- source = PR head ref</text><text fill="#000000" font-family="sans-serif" font-size="13" lengthAdjust="spacing" textLength="127.8681" x="1153.6571" y="104.377">- target = PR base ref</text><text fill="#000000" font-family="sans-serif" font-size="13" lengthAdjust="spacing" textLength="204.9192" x="1153.6571" y="122.083">- merge base = common ancestor</text><ellipse cx="1117.6571" cy="90.4799" fill="#222222" rx="10" ry="10" style="stroke:#222222;stroke-width:1;"/><rect fill="#F1F1F1" height="36.3441" rx="12.5" ry="12.5" style="stroke:#181818;stroke-width:0.5;" width="333.3822" x="950.966" y="150.892"/><text fill="#000000" font-family="sans-serif" font-size="12" lengthAdjust="spacing" textLength="313.3822" x="960.966" y="173.7201">Is path relevant (matches configured model extension)?</text><polygon fill="#F1F1F1" points="1092.9623,207.2361,1142.3519,207.2361,1154.3519,219.2361,1142.3519,231.2361,1092.9623,231.2361,1080.9623,219.2361,1092.9623,207.2361" style="stroke:#181818;stroke-width:0.5;"/><text fill="#000000" font-family="sans-serif" font-size="11" lengthAdjust="spacing" textLength="49.3896" x="1092.9623" y="223.5041">Relevant?</text><text fill="#000000" font-family="sans-serif" font-size="11" lengthAdjust="spacing" textLength="17.0829" x="1063.8794" y="216.0131">yes</text><text fill="#000000" font-family="sans-serif" font-size="11" lengthAdjust="spacing" textLength="13.4529" x="1154.3519" y="216.0131">no</text><rect fill="#F1F1F1" height="36.3441" rx="12.5" ry="12.5" style="stroke:#181818;stroke-width:0.5;" width="341.1344" x="443.232" y="241.2361"/><text fill="#000000" font-family="sans-serif" font-size="12" lengthAdjust="spacing" textLength="321.1344" x="453.232" y="264.0642">Determine file status (added/deleted/modified/renamed)</text><polygon fill="#F1F1F1" points="566.714,297.5802,660.8844,297.5802,672.8844,309.5802,660.8844,321.5802,566.714,321.5802,554.714,309.5802,566.714,297.5802" style="stroke:#181818;stroke-width:0.5;"/><text fill="#000000" font-family="sans-serif" font-size="11" lengthAdjust="spacing" textLength="94.1703" x="566.714" y="313.8482">Added or deleted?</text><text fill="#000000" font-family="sans-serif" font-size="11" lengthAdjust="spacing" textLength="17.0829" x="537.6312" y="306.3572">yes</text><text fill="#000000" font-family="sans-serif" font-size="11" lengthAdjust="spacing" textLength="13.4529" x="672.8844" y="306.3572">no</text><rect fill="#F1F1F1" height="36.3441" rx="12.5" ry="12.5" style="stroke:#181818;stroke-width:0.5;" width="277.8699" x="11" y="331.5802"/><text fill="#000000" font-family="sans-serif" font-size="12" lengthAdjust="spacing" textLength="257.8699" x="21" y="354.4083">Report outcome: creation/deletion at file level</text><rect fill="#F1F1F1" height="36.3441" rx="12.5" ry="12.5" style="stroke:#181818;stroke-width:0.5;" width="194.4813" x="1020.4228" y="331.5802"/><text fill="#000000" font-family="sans-serif" font-size="12" lengthAdjust="spacing" textLength="174.4813" x="1030.4228" y="354.4083">Resolve metamodel for this file</text><polygon fill="#F1F1F1" points="1062.2788,387.9243,1173.048,387.9243,1185.048,399.9243,1173.048,411.9243,1062.2788,411.9243,1050.2788,399.9243,1062.2788,387.9243" style="stroke:#181818;stroke-width:0.5;"/><text fill="#000000" font-family="sans-serif" font-size="11" lengthAdjust="spacing" textLength="110.7692" x="1062.2788" y="404.1923">Metamodel resolved?</text><text fill="#000000" font-family="sans-serif" font-size="11" lengthAdjust="spacing" textLength="17.0829" x="1033.196" y="396.7013">yes</text><text fill="#000000" font-family="sans-serif" font-size="11" lengthAdjust="spacing" textLength="13.4529" x="1185.048" y="396.7013">no</text><rect fill="#F1F1F1" height="36.3441" rx="12.5" ry="12.5" style="stroke:#181818;stroke-width:0.5;" width="261.3577" x="738.6025" y="421.9243"/><text fill="#000000" font-family="sans-serif" font-size="12" lengthAdjust="spacing" textLength="241.3577" x="748.6025" y="444.7524">Load source and target versions as models</text><polygon fill="#F1F1F1" points="818.9512,478.2684,919.6115,478.2684,931.6115,490.2684,919.6115,502.2684,818.9512,502.2684,806.9512,490.2684,818.9512,478.2684" style="stroke:#181818;stroke-width:0.5;"/><text fill="#000000" font-family="sans-serif" font-size="11" lengthAdjust="spacing" textLength="100.6603" x="818.9512" y="494.5364">Both versions load?</text><text fill="#000000" font-family="sans-serif" font-size="11" lengthAdjust="spacing" textLength="17.0829" x="789.8683" y="487.0455">yes</text><text fill="#000000" font-family="sans-serif" font-size="11" lengthAdjust="spacing" textLength="13.4529" x="931.6115" y="487.0455">no</text><rect fill="#F1F1F1" height="36.3441" rx="12.5" ry="12.5" style="stroke:#181818;stroke-width:0.5;" width="312.5381" x="474.7855" y="512.2684"/><text fill="#000000" font-family="sans-serif" font-size="12" lengthAdjust="spacing" textLength="292.5381" x="484.7855" y="535.0965">Compute merge base and decide comparison mode</text><polygon fill="#F1F1F1" points="506.2935,568.6126,755.8157,568.6126,767.8157,580.6126,755.8157,592.6126,506.2935,592.6126,494.2935,580.6126,506.2935,568.6126" style="stroke:#181818;stroke-width:0.5;"/><text fill="#000000" font-family="sans-serif" font-size="11" lengthAdjust="spacing" textLength="249.5222" x="506.2935" y="584.8805">Both source and target changed vs merge base?</text><text fill="#000000" font-family="sans-serif" font-size="11" lengthAdjust="spacing" textLength="17.0829" x="477.2106" y="577.3896">yes</text><text fill="#000000" font-family="sans-serif" font-size="11" lengthAdjust="spacing" textLength="13.4529" x="767.8157" y="577.3896">no</text><rect fill="#F1F1F1" height="36.3441" rx="12.5" ry="12.5" style="stroke:#181818;stroke-width:0.5;" width="322.1847" x="298.8699" y="602.6126"/><text fill="#000000" font-family="sans-serif" font-size="12" lengthAdjust="spacing" textLength="302.1847" x="308.8699" y="625.4406">Case: 3-way comparison &#8594; &lt;3-way-comparison.puml&gt;</text><rect fill="#F1F1F1" height="36.3441" rx="12.5" ry="12.5" style="stroke:#181818;stroke-width:0.5;" width="322.1847" x="641.0546" y="602.6126"/><text fill="#000000" font-family="sans-serif" font-size="12" lengthAdjust="spacing" textLength="302.1847" x="651.0546" y="625.4406">Case: 2-way comparison &#8594; &lt;2-way-comparison.puml&gt;</text><polygon fill="#F1F1F1" points="631.0546,644.9567,643.0546,656.9567,631.0546,668.9567,619.0546,656.9567,631.0546,644.9567" style="stroke:#181818;stroke-width:0.5;"/><rect fill="#F1F1F1" height="36.3441" rx="12.5" ry="12.5" style="stroke:#181818;stroke-width:0.5;" width="152.997" x="1031.0096" y="512.2684"/><text fill="#000000" font-family="sans-serif" font-size="12" lengthAdjust="spacing" textLength="132.997" x="1041.0096" y="535.0965">Case: parse/load failure</text><rect fill="#F1F1F1" height="36.3441" rx="12.5" ry="12.5" style="stroke:#181818;stroke-width:0.5;" width="228.5375" x="993.2393" y="568.6126"/><text fill="#000000" font-family="sans-serif" font-size="12" lengthAdjust="spacing" textLength="208.5375" x="1003.2393" y="591.4406">Report outcome: analysis incomplete</text><polygon fill="#F1F1F1" points="869.2813,674.9567,881.2813,686.9567,869.2813,698.9567,857.2813,686.9567,869.2813,674.9567" style="stroke:#181818;stroke-width:0.5;"/><rect fill="#F1F1F1" height="36.3441" rx="12.5" ry="12.5" style="stroke:#181818;stroke-width:0.5;" width="217.7254" x="1257.1828" y="421.9243"/><text fill="#000000" font-family="sans-serif" font-size="12" lengthAdjust="spacing" textLength="197.7254" x="1267.1828" y="444.7524">Case: metamodel resolution failure</text><rect fill="#F1F1F1" height="36.3441" rx="12.5" ry="12.5" style="stroke:#181818;stroke-width:0.5;" width="228.5375" x="1251.7768" y="478.2684"/><text fill="#000000" font-family="sans-serif" font-size="12" lengthAdjust="spacing" textLength="208.5375" x="1261.7768" y="501.0965">Report outcome: analysis incomplete</text><polygon fill="#F1F1F1" points="1117.6634,704.9567,1129.6634,716.9567,1117.6634,728.9567,1105.6634,716.9567,1117.6634,704.9567" style="stroke:#181818;stroke-width:0.5;"/><polygon fill="#F1F1F1" points="613.7992,734.9567,625.7992,746.9567,613.7992,758.9567,601.7992,746.9567,613.7992,734.9567" style="stroke:#181818;stroke-width:0.5;"/><rect fill="#F1F1F1" height="36.3441" rx="12.5" ry="12.5" style="stroke:#181818;stroke-width:0.5;" width="202.4013" x="1490.3143" y="241.2361"/><text fill="#000000" font-family="sans-serif" font-size="12" lengthAdjust="spacing" textLength="182.4013" x="1500.3143" y="264.0642">Skip: not a configured model file</text><polygon fill="#F1F1F1" points="1117.6571,764.9567,1129.6571,776.9567,1117.6571,788.9567,1105.6571,776.9567,1117.6571,764.9567" style="stroke:#181818;stroke-width:0.5;"/><rect fill="#F1F1F1" height="36.3441" rx="12.5" ry="12.5" style="stroke:#181818;stroke-width:0.5;" width="216.6214" x="1009.3464" y="808.9567"/><text fill="#000000" font-family="sans-serif" font-size="12" lengthAdjust="spacing" textLength="196.6214" x="1019.3464" y="831.7848">New report posted as PR comment</text><ellipse cx="1117.6571" cy="876.3008" fill="none" rx="11" ry="11" style="stroke:#222222;stroke-width:1;"/><ellipse cx="1117.6571" cy="876.3008" fill="#222222" rx="6" ry="6" style="stroke:#222222;stroke-width:1;"/><line style="stroke:#181818;stroke-width:1;" x1="1117.6571" x2="1117.6571" y1="100.4799" y2="150.892"/><polygon fill="#181818" points="1113.6571,140.892,1117.6571,150.892,1121.6571,140.892,1117.6571,144.892" style="stroke:#181818;stroke-width:1;"/><line style="stroke:#181818;stroke-width:1;" x1="494.2935" x2="459.9622" y1="580.6126" y2="580.6126"/><line style="stroke:#181818;stroke-width:1;" x1="459.9622" x2="459.9622" y1="580.6126" y2="602.6126"/><polygon fill="#181818" points="455.9622,592.6126,459.9622,602.6126,463.9622,592.6126,459.9622,596.6126" style="stroke:#181818;stroke-width:1;"/><line style="stroke:#181818;stroke-width:1;" x1="767.8157" x2="802.147" y1="580.6126" y2="580.6126"/><line style="stroke:#181818;stroke-width:1;" x1="802.147" x2="802.147" y1="580.6126" y2="602.6126"/><polygon fill="#181818" points="798.147,592.6126,802.147,602.6126,806.147,592.6126,802.147,596.6126" style="stroke:#181818;stroke-width:1;"/><line style="stroke:#181818;stroke-width:1;" x1="459.9622" x2="459.9622" y1="638.9567" y2="656.9567"/><line style="stroke:#181818;stroke-width:1;" x1="459.9622" x2="619.0546" y1="656.9567" y2="656.9567"/><polygon fill="#181818" points="609.0546,652.9567,619.0546,656.9567,609.0546,660.9567,613.0546,656.9567" style="stroke:#181818;stroke-width:1;"/><line style="stroke:#181818;stroke-width:1;" x1="802.147" x2="802.147" y1="638.9567" y2="656.9567"/><line style="stroke:#181818;stroke-width:1;" x1="802.147" x2="643.0546" y1="656.9567" y2="656.9567"/><polygon fill="#181818" points="653.0546,652.9567,643.0546,656.9567,653.0546,660.9567,649.0546,656.9567" style="stroke:#181818;stroke-width:1;"/><line style="stroke:#181818;stroke-width:1;" x1="631.0546" x2="631.0546" y1="548.6126" y2="568.6126"/><polygon fill="#181818" points="627.0546,558.6126,631.0546,568.6126,635.0546,558.6126,631.0546,562.6126" style="stroke:#181818;stroke-width:1;"/><line style="stroke:#181818;stroke-width:1;" x1="1107.5081" x2="1107.5081" y1="548.6126" y2="568.6126"/><polygon fill="#181818" points="1103.5081,558.6126,1107.5081,568.6126,1111.5081,558.6126,1107.5081,562.6126" style="stroke:#181818;stroke-width:1;"/><line style="stroke:#181818;stroke-width:1;" x1="806.9512" x2="631.0546" y1="490.2684" y2="490.2684"/><line style="stroke:#181818;stroke-width:1;" x1="631.0546" x2="631.0546" y1="490.2684" y2="512.2684"/><polygon fill="#181818" points="627.0546,502.2684,631.0546,512.2684,635.0546,502.2684,631.0546,506.2684" style="stroke:#181818;stroke-width:1;"/><line style="stroke:#181818;stroke-width:1;" x1="931.6115" x2="1107.5081" y1="490.2684" y2="490.2684"/><line style="stroke:#181818;stroke-width:1;" x1="1107.5081" x2="1107.5081" y1="490.2684" y2="512.2684"/><polygon fill="#181818" points="1103.5081,502.2684,1107.5081,512.2684,1111.5081,502.2684,1107.5081,506.2684" style="stroke:#181818;stroke-width:1;"/><line style="stroke:#181818;stroke-width:1;" x1="631.0546" x2="631.0546" y1="668.9567" y2="686.9567"/><line style="stroke:#181818;stroke-width:1;" x1="631.0546" x2="857.2813" y1="686.9567" y2="686.9567"/><polygon fill="#181818" points="847.2813,682.9567,857.2813,686.9567,847.2813,690.9567,851.2813,686.9567" style="stroke:#181818;stroke-width:1;"/><line style="stroke:#181818;stroke-width:1;" x1="1107.5081" x2="1107.5081" y1="604.9567" y2="686.9567"/><line style="stroke:#181818;stroke-width:1;" x1="1107.5081" x2="881.2813" y1="686.9567" y2="686.9567"/><polygon fill="#181818" points="891.2813,682.9567,881.2813,686.9567,891.2813,690.9567,887.2813,686.9567" style="stroke:#181818;stroke-width:1;"/><line style="stroke:#181818;stroke-width:1;" x1="869.2813" x2="869.2813" y1="458.2684" y2="478.2684"/><polygon fill="#181818" points="865.2813,468.2684,869.2813,478.2684,873.2813,468.2684,869.2813,472.2684" style="stroke:#181818;stroke-width:1;"/><line style="stroke:#181818;stroke-width:1;" x1="1366.0456" x2="1366.0456" y1="458.2684" y2="478.2684"/><polygon fill="#181818" points="1362.0456,468.2684,1366.0456,478.2684,1370.0456,468.2684,1366.0456,472.2684" style="stroke:#181818;stroke-width:1;"/><line style="stroke:#181818;stroke-width:1;" x1="1050.2788" x2="869.2813" y1="399.9243" y2="399.9243"/><line style="stroke:#181818;stroke-width:1;" x1="869.2813" x2="869.2813" y1="399.9243" y2="421.9243"/><polygon fill="#181818" points="865.2813,411.9243,869.2813,421.9243,873.2813,411.9243,869.2813,415.9243" style="stroke:#181818;stroke-width:1;"/><line style="stroke:#181818;stroke-width:1;" x1="1185.048" x2="1366.0456" y1="399.9243" y2="399.9243"/><line style="stroke:#181818;stroke-width:1;" x1="1366.0456" x2="1366.0456" y1="399.9243" y2="421.9243"/><polygon fill="#181818" points="1362.0456,411.9243,1366.0456,421.9243,1370.0456,411.9243,1366.0456,415.9243" style="stroke:#181818;stroke-width:1;"/><line style="stroke:#181818;stroke-width:1;" x1="869.2813" x2="869.2813" y1="698.9567" y2="716.9567"/><line style="stroke:#181818;stroke-width:1;" x1="869.2813" x2="1105.6634" y1="716.9567" y2="716.9567"/><polygon fill="#181818" points="1095.6634,712.9567,1105.6634,716.9567,1095.6634,720.9567,1099.6634,716.9567" style="stroke:#181818;stroke-width:1;"/><line style="stroke:#181818;stroke-width:1;" x1="1366.0456" x2="1366.0456" y1="514.6126" y2="716.9567"/><line style="stroke:#181818;stroke-width:1;" x1="1366.0456" x2="1129.6634" y1="716.9567" y2="716.9567"/><polygon fill="#181818" points="1139.6634,712.9567,1129.6634,716.9567,1139.6634,720.9567,1135.6634,716.9567" style="stroke:#181818;stroke-width:1;"/><line style="stroke:#181818;stroke-width:1;" x1="1117.6634" x2="1117.6634" y1="367.9243" y2="387.9243"/><polygon fill="#181818" points="1113.6634,377.9243,1117.6634,387.9243,1121.6634,377.9243,1117.6634,381.9243" style="stroke:#181818;stroke-width:1;"/><line style="stroke:#181818;stroke-width:1;" x1="554.714" x2="149.9349" y1="309.5802" y2="309.5802"/><line style="stroke:#181818;stroke-width:1;" x1="149.9349" x2="149.9349" y1="309.5802" y2="331.5802"/><polygon fill="#181818" points="145.9349,321.5802,149.9349,331.5802,153.9349,321.5802,149.9349,325.5802" style="stroke:#181818;stroke-width:1;"/><line style="stroke:#181818;stroke-width:1;" x1="672.8844" x2="1117.6634" y1="309.5802" y2="309.5802"/><line style="stroke:#181818;stroke-width:1;" x1="1117.6634" x2="1117.6634" y1="309.5802" y2="331.5802"/><polygon fill="#181818" points="1113.6634,321.5802,1117.6634,331.5802,1121.6634,321.5802,1117.6634,325.5802" style="stroke:#181818;stroke-width:1;"/><line style="stroke:#181818;stroke-width:1;" x1="149.9349" x2="149.9349" y1="367.9243" y2="746.9567"/><line style="stroke:#181818;stroke-width:1;" x1="149.9349" x2="601.7992" y1="746.9567" y2="746.9567"/><polygon fill="#181818" points="591.7992,742.9567,601.7992,746.9567,591.7992,750.9567,595.7992,746.9567" style="stroke:#181818;stroke-width:1;"/><line style="stroke:#181818;stroke-width:1;" x1="1117.6634" x2="1117.6634" y1="728.9567" y2="746.9567"/><line style="stroke:#181818;stroke-width:1;" x1="1117.6634" x2="625.7992" y1="746.9567" y2="746.9567"/><polygon fill="#181818" points="635.7992,742.9567,625.7992,746.9567,635.7992,750.9567,631.7992,746.9567" style="stroke:#181818;stroke-width:1;"/><line style="stroke:#181818;stroke-width:1;" x1="613.7992" x2="613.7992" y1="277.5802" y2="297.5802"/><polygon fill="#181818" points="609.7992,287.5802,613.7992,297.5802,617.7992,287.5802,613.7992,291.5802" style="stroke:#181818;stroke-width:1;"/><line style="stroke:#181818;stroke-width:1;" x1="1080.9623" x2="613.7992" y1="219.2361" y2="219.2361"/><line style="stroke:#181818;stroke-width:1;" x1="613.7992" x2="613.7992" y1="219.2361" y2="241.2361"/><polygon fill="#181818" points="609.7992,231.2361,613.7992,241.2361,617.7992,231.2361,613.7992,235.2361" style="stroke:#181818;stroke-width:1;"/><line style="stroke:#181818;stroke-width:1;" x1="1154.3519" x2="1591.515" y1="219.2361" y2="219.2361"/><line style="stroke:#181818;stroke-width:1;" x1="1591.515" x2="1591.515" y1="219.2361" y2="241.2361"/><polygon fill="#181818" points="1587.515,231.2361,1591.515,241.2361,1595.515,231.2361,1591.515,235.2361" style="stroke:#181818;stroke-width:1;"/><line style="stroke:#181818;stroke-width:1;" x1="613.7992" x2="613.7992" y1="758.9567" y2="776.9567"/><line style="stroke:#181818;stroke-width:1;" x1="613.7992" x2="1105.6571" y1="776.9567" y2="776.9567"/><polygon fill="#181818" points="1095.6571,772.9567,1105.6571,776.9567,1095.6571,780.9567,1099.6571,776.9567" style="stroke:#181818;stroke-width:1;"/><line style="stroke:#181818;stroke-width:1;" x1="1591.515" x2="1591.515" y1="277.5802" y2="776.9567"/><line style="stroke:#181818;stroke-width:1;" x1="1591.515" x2="1129.6571" y1="776.9567" y2="776.9567"/><polygon fill="#181818" points="1139.6571,772.9567,1129.6571,776.9567,1139.6571,780.9567,1135.6571,776.9567" style="stroke:#181818;stroke-width:1;"/><line style="stroke:#181818;stroke-width:1;" x1="1117.6571" x2="1117.6571" y1="187.2361" y2="207.2361"/><polygon fill="#181818" points="1113.6571,197.2361,1117.6571,207.2361,1121.6571,197.2361,1117.6571,201.2361" style="stroke:#181818;stroke-width:1;"/><line style="stroke:#181818;stroke-width:1;" x1="1117.6571" x2="1117.6571" y1="788.9567" y2="808.9567"/><polygon fill="#181818" points="1113.6571,798.9567,1117.6571,808.9567,1121.6571,798.9567,1117.6571,802.9567" style="stroke:#181818;stroke-width:1;"/><line style="stroke:#181818;stroke-width:1;" x1="1117.6571" x2="1117.6571" y1="845.3008" y2="865.3008"/><polygon fill="#181818" points="1113.6571,855.3008,1117.6571,865.3008,1121.6571,855.3008,1117.6571,859.3008" style="stroke:#181818;stroke-width:1;"/><?plantuml-src ZLHBRjmm3Dth55pQYya0wSvk6gH95WMQefZs0gf5sq9bqP3ecSu5Ue0UiISfPJkURz6kR8ZaUu-FbDYoG_YyWKSTCK9D0JHqPD11RIMIzHXMlUOMQaUxNAd8Eh1IdXWXsAPb1V0LGsSzEMhsa4L4C5IjDyyFJo_FDvt92qbPGQGXL0XtYQn5RI1WFGO4i46U0jz4nHBeK0BJqHrKr7NaGViA8rDGw0qa4KeL7oAC2WCwt6hFa7MQgrRQgSZNjXa2chad_C7eeoMVtvVArf1jvfhx7BX53zaUOoxinHFos1LEFaZRF4J8j35erW8bORCMK5jR-GdeTOScBvNK9jo7b0VYvfnwZYyC6-mfCD30qXiMK0NKBD8cT9kQvObS9A8hfGgTU95vMX0YkIsAKQpdcGaZjpQETUMObTIyB0bXAhcYH_0-aenbdfCMV-V9R34aooBeEDaOoxaYORydiNv9SG9n3LlG7wdh1yRZiIOIWvKrcERRws2Zj9quogLkuRWKLhNQDsBpDXw1NcTF_18iuCrgf_V7RBz__eAtu-dgS7hJ3vrxTn1nQlm9uErLmDj_0NhP7FKty1bQQYEkawLGQ-jaZmy05-kZlNRxAAEtFj6chNlDFf2TKyr4tUb-3EFsdL7-F-4htVHLnvp5b--sBzB5bMVcudPEIpkN5Pzm9t96pfwYtA6qV_96f9S0FPVfBQB-3m00?></g></svg>