<?xml version="1.0" encoding="us-ascii" standalone="no"?><svg xmlns="http://www.w3.org/2000/svg" xmlns:xlink="http://www.w3.org/1999/xlink" contentStyleType="text/css" height="683px" preserveAspectRatio="none" style="width:521px;height:683px;background:#FFFFFF;" version="1.1" viewBox="0 0 521 683" width="521px" zoomAndPan="magnify"><defs/><g><text fill="#000000" font-family="sans-serif" font-size="14" font-weight="bold" lengthAdjust="spacing" textLength="192" x="163" y="32.9951">RAMA Startup Sequence</text><ellipse cx="264.5" cy="57.2969" fill="#222222" rx="10" ry="10" style="stroke:#222222;stroke-width:1.0;"/><rect fill="#F1F1F1" height="33.9688" rx="12.5" ry="12.5" style="stroke:#181818;stroke-width:0.5;" width="406" x="61.5" y="87.2969"/><text fill="#000000" font-family="sans-serif" font-size="12" lengthAdjust="spacing" textLength="386" x="71.5" y="108.4355">Detect PR event (pull_request opened/reopened/synchronize)</text><rect fill="#F1F1F1" height="33.9688" rx="12.5" ry="12.5" style="stroke:#181818;stroke-width:0.5;" width="217" x="156" y="141.2656"/><text fill="#000000" font-family="sans-serif" font-size="12" lengthAdjust="spacing" textLength="197" x="166" y="162.4043">Trigger GitHub Actions workflow</text><rect fill="#F1F1F1" height="33.9688" rx="12.5" ry="12.5" style="stroke:#181818;stroke-width:0.5;" width="244" x="142.5" y="195.2344"/><text fill="#000000" font-family="sans-serif" font-size="12" lengthAdjust="spacing" textLength="224" x="152.5" y="216.373">Checkout PR head (source) revision</text><rect fill="#F1F1F1" height="33.9688" rx="12.5" ry="12.5" style="stroke:#181818;stroke-width:0.5;" width="170" x="179.5" y="249.2031"/><text fill="#000000" font-family="sans-serif" font-size="12" lengthAdjust="spacing" textLength="150" x="189.5" y="270.3418">Build and execute RAMA</text><rect fill="#F1F1F1" height="33.9688" rx="12.5" ry="12.5" style="stroke:#181818;stroke-width:0.5;" width="257" x="136" y="303.1719"/><text fill="#000000" font-family="sans-serif" font-size="12" lengthAdjust="spacing" textLength="237" x="146" y="324.3105">Look for `rama.json` configuration file</text><polygon fill="#F1F1F1" points="155.5,357.1406,373.5,357.1406,385.5,369.1406,373.5,381.1406,155.5,381.1406,143.5,369.1406,155.5,357.1406" style="stroke:#181818;stroke-width:0.5;"/><text fill="#000000" font-family="sans-serif" font-size="11" lengthAdjust="spacing" textLength="218" x="155.5" y="372.9487">Is `rama.json` missing/empty/invalid?</text><text fill="#000000" font-family="sans-serif" font-size="11" lengthAdjust="spacing" textLength="20" x="123.5" y="366.5464">yes</text><text fill="#000000" font-family="sans-serif" font-size="11" lengthAdjust="spacing" textLength="14" x="385.5" y="366.5464">no</text><rect fill="#F1F1F1" height="33.9688" rx="12.5" ry="12.5" style="stroke:#181818;stroke-width:0.5;" width="245" x="11" y="391.1406"/><text fill="#000000" font-family="sans-serif" font-size="12" lengthAdjust="spacing" textLength="225" x="21" y="412.2793">Display warning about configuration</text><rect fill="#F1F1F1" height="33.9688" rx="12.5" ry="12.5" style="stroke:#181818;stroke-width:0.5;" width="179" x="44" y="445.1094"/><text fill="#000000" font-family="sans-serif" font-size="12" lengthAdjust="spacing" textLength="159" x="54" y="466.248">Use default configuration</text><rect fill="#F1F1F1" height="33.9688" rx="12.5" ry="12.5" style="stroke:#181818;stroke-width:0.5;" width="143" x="324" y="391.1406"/><text fill="#000000" font-family="sans-serif" font-size="12" lengthAdjust="spacing" textLength="123" x="334" y="412.2793">Parse configuration</text><rect fill="#F1F1F1" height="47.9375" rx="12.5" ry="12.5" style="stroke:#181818;stroke-width:0.5;" width="229" x="281" y="445.1094"/><text fill="#000000" font-family="sans-serif" font-size="12" lengthAdjust="spacing" textLength="209" x="291" y="466.248">Set model/metamodel extensions</text><text fill="#000000" font-family="sans-serif" font-size="12" lengthAdjust="spacing" textLength="200" x="295" y="480.2168">and metamodel resolution rules</text><polygon fill="#F1F1F1" points="264.5,499.0469,276.5,511.0469,264.5,523.0469,252.5,511.0469,264.5,499.0469" style="stroke:#181818;stroke-width:0.5;"/><rect fill="#F1F1F1" height="33.9688" rx="12.5" ry="12.5" style="stroke:#181818;stroke-width:0.5;" width="347" x="91" y="543.0469"/><text fill="#000000" font-family="sans-serif" font-size="12" lengthAdjust="spacing" textLength="327" x="101" y="564.1855">Fetch PR file list and changed paths from GitHub API</text><rect fill="#F1F1F1" height="33.9688" rx="12.5" ry="12.5" style="stroke:#181818;stroke-width:0.5;" width="387" x="71" y="597.0156"/><text fill="#000000" font-family="sans-serif" font-size="12" lengthAdjust="spacing" textLength="367" x="81" y="618.1543">Analyze each affected file &#8594; &lt;pr-model-file-cases-all.puml&gt;</text><ellipse cx="264.5" cy="661.9844" fill="none" rx="11" ry="11" style="stroke:#222222;stroke-width:1.0;"/><ellipse cx="264.5" cy="661.9844" fill="#222222" rx="6" ry="6" style="stroke:#222222;stroke-width:1.0;"/><line style="stroke:#181818;stroke-width:1.0;" x1="264.5" x2="264.5" y1="67.2969" y2="87.2969"/><polygon fill="#181818" points="260.5,77.2969,264.5,87.2969,268.5,77.2969,264.5,81.2969" style="stroke:#181818;stroke-width:1.0;"/><line style="stroke:#181818;stroke-width:1.0;" x1="264.5" x2="264.5" y1="121.2656" y2="141.2656"/><polygon fill="#181818" points="260.5,131.2656,264.5,141.2656,268.5,131.2656,264.5,135.2656" style="stroke:#181818;stroke-width:1.0;"/><line style="stroke:#181818;stroke-width:1.0;" x1="264.5" x2="264.5" y1="175.2344" y2="195.2344"/><polygon fill="#181818" points="260.5,185.2344,264.5,195.2344,268.5,185.2344,264.5,189.2344" style="stroke:#181818;stroke-width:1.0;"/><line style="stroke:#181818;stroke-width:1.0;" x1="264.5" x2="264.5" y1="229.2031" y2="249.2031"/><polygon fill="#181818" points="260.5,239.2031,264.5,249.2031,268.5,239.2031,264.5,243.2031" style="stroke:#181818;stroke-width:1.0;"/><line style="stroke:#181818;stroke-width:1.0;" x1="264.5" x2="264.5" y1="283.1719" y2="303.1719"/><polygon fill="#181818" points="260.5,293.1719,264.5,303.1719,268.5,293.1719,264.5,297.1719" style="stroke:#181818;stroke-width:1.0;"/><line style="stroke:#181818;stroke-width:1.0;" x1="133.5" x2="133.5" y1="425.1094" y2="445.1094"/><polygon fill="#181818" points="129.5,435.1094,133.5,445.1094,137.5,435.1094,133.5,439.1094" style="stroke:#181818;stroke-width:1.0;"/><line style="stroke:#181818;stroke-width:1.0;" x1="395.5" x2="395.5" y1="425.1094" y2="445.1094"/><polygon fill="#181818" points="391.5,435.1094,395.5,445.1094,399.5,435.1094,395.5,439.1094" style="stroke:#181818;stroke-width:1.0;"/><line style="stroke:#181818;stroke-width:1.0;" x1="143.5" x2="133.5" y1="369.1406" y2="369.1406"/><line style="stroke:#181818;stroke-width:1.0;" x1="133.5" x2="133.5" y1="369.1406" y2="391.1406"/><polygon fill="#181818" points="129.5,381.1406,133.5,391.1406,137.5,381.1406,133.5,385.1406" style="stroke:#181818;stroke-width:1.0;"/><line style="stroke:#181818;stroke-width:1.0;" x1="385.5" x2="395.5" y1="369.1406" y2="369.1406"/><line style="stroke:#181818;stroke-width:1.0;" x1="395.5" x2="395.5" y1="369.1406" y2="391.1406"/><polygon fill="#181818" points="391.5,381.1406,395.5,391.1406,399.5,381.1406,395.5,385.1406" style="stroke:#181818;stroke-width:1.0;"/><line style="stroke:#181818;stroke-width:1.0;" x1="133.5" x2="133.5" y1="479.0781" y2="511.0469"/><line style="stroke:#181818;stroke-width:1.0;" x1="133.5" x2="252.5" y1="511.0469" y2="511.0469"/><polygon fill="#181818" points="242.5,507.0469,252.5,511.0469,242.5,515.0469,246.5,511.0469" style="stroke:#181818;stroke-width:1.0;"/><line style="stroke:#181818;stroke-width:1.0;" x1="395.5" x2="395.5" y1="493.0469" y2="511.0469"/><line style="stroke:#181818;stroke-width:1.0;" x1="395.5" x2="276.5" y1="511.0469" y2="511.0469"/><polygon fill="#181818" points="286.5,507.0469,276.5,511.0469,286.5,515.0469,282.5,511.0469" style="stroke:#181818;stroke-width:1.0;"/><line style="stroke:#181818;stroke-width:1.0;" x1="264.5" x2="264.5" y1="337.1406" y2="357.1406"/><polygon fill="#181818" points="260.5,347.1406,264.5,357.1406,268.5,347.1406,264.5,351.1406" style="stroke:#181818;stroke-width:1.0;"/><line style="stroke:#181818;stroke-width:1.0;" x1="264.5" x2="264.5" y1="523.0469" y2="543.0469"/><polygon fill="#181818" points="260.5,533.0469,264.5,543.0469,268.5,533.0469,264.5,537.0469" style="stroke:#181818;stroke-width:1.0;"/><line style="stroke:#181818;stroke-width:1.0;" x1="264.5" x2="264.5" y1="577.0156" y2="597.0156"/><polygon fill="#181818" points="260.5,587.0156,264.5,597.0156,268.5,587.0156,264.5,591.0156" style="stroke:#181818;stroke-width:1.0;"/><line style="stroke:#181818;stroke-width:1.0;" x1="264.5" x2="264.5" y1="630.9844" y2="650.9844"/><polygon fill="#181818" points="260.5,640.9844,264.5,650.9844,268.5,640.9844,264.5,644.9844" style="stroke:#181818;stroke-width:1.0;"/><!--SRC=[PPBFRXCn4CRl-nHpt1pIt1C42bJGIY153PpfrFwywyPh6u-Ti7q07e17v4cm5mIgUXlF_6Q- -UDiimFTxJ_jwPWvvHBfY6y5Ng7hf7cwRdkD39NfS4SumsVgOt7kQsgSP0eH7dgJyDUGsQin1M-ViDfrsy_93WCIVR3vfZpGNcKRlD0bf9DnuLA9ToFKAPH5O0HhwYMKfB2YXBELYbVeRR5E4tjD-0vLyf-cQ-1Z22So8T5zuecl7YNuUrB16pkKn4sCZ7NOTPqrrD_ACswo8jOF6qmnpnlhp-oiVhEYFC9JFqDM7T7ssafqFDE5awyqyKFhzfd6hd5V1AHXkBWNKRWQwtrOwXqurTVB_2CoJK73RIPaNgmwROQNPMKLMHRmFvWWmPLbnbGSfEfuRKqzsNjaDRQ5jjd9sNgdbgf6zWCqHSwZa4bX-dUNmsrTvjwpcvz0u9hDnjIpLtgfyUl7JteLqtfHNZVNMh50rkpSLIoJUxrhFoR4tm00]--></g></svg>