<?xml version="1.0" encoding="us-ascii" standalone="no"?><svg xmlns="http://www.w3.org/2000/svg" xmlns:xlink="http://www.w3.org/1999/xlink" contentStyleType="text/css" height="766px" preserveAspectRatio="none" style="width:474px;height:766px;background:#FFFFFF;" version="1.1" viewBox="0 0 474 766" width="474px" zoomAndPan="magnify"><defs/><g><text fill="#000000" font-family="sans-serif" font-size="14" font-weight="bold" lengthAdjust="spacing" textLength="168" x="151.5" y="34.9659">RAMA Startup Sequence</text><ellipse cx="240.5" cy="60.0679" fill="#222222" rx="10" ry="10" style="stroke:#222222;stroke-width:1.0;"/><rect fill="#F1F1F1" height="36.3441" rx="12.5" ry="12.5" style="stroke:#181818;stroke-width:0.5;" width="361" x="60" y="90.0679"/><text fill="#000000" font-family="sans-serif" font-size="12" lengthAdjust="spacing" textLength="341" x="70" y="112.896">Detect PR event (pull_request opened/reopened/synchronize)</text><rect fill="#F1F1F1" height="36.3441" rx="12.5" ry="12.5" style="stroke:#181818;stroke-width:0.5;" width="200" x="140.5" y="146.412"/><text fill="#000000" font-family="sans-serif" font-size="12" lengthAdjust="spacing" textLength="180" x="150.5" y="169.2401">Trigger GitHub Actions workflow</text><rect fill="#F1F1F1" height="36.3441" rx="12.5" ry="12.5" style="stroke:#181818;stroke-width:0.5;" width="216" x="132.5" y="202.7561"/><text fill="#000000" font-family="sans-serif" font-size="12" lengthAdjust="spacing" textLength="196" x="142.5" y="225.5842">Checkout PR head (source) revision</text><rect fill="#F1F1F1" height="36.3441" rx="12.5" ry="12.5" style="stroke:#181818;stroke-width:0.5;" width="156" x="162.5" y="259.1003"/><text fill="#000000" font-family="sans-serif" font-size="12" lengthAdjust="spacing" textLength="136" x="172.5" y="281.9283">Build and execute RAMA</text><rect fill="#F1F1F1" height="36.3441" rx="12.5" ry="12.5" style="stroke:#181818;stroke-width:0.5;" width="227" x="127" y="315.4444"/><text fill="#000000" font-family="sans-serif" font-size="12" lengthAdjust="spacing" textLength="207" x="137" y="338.2725">Look for `rama.json` configuration file</text><polygon fill="#F1F1F1" points="143.5,371.7885,337.5,371.7885,349.5,383.7885,337.5,395.7885,143.5,395.7885,131.5,383.7885,143.5,371.7885" style="stroke:#181818;stroke-width:0.5;"/><text fill="#000000" font-family="sans-serif" font-size="11" lengthAdjust="spacing" textLength="194" x="143.5" y="388.0565">Is `rama.json` missing/empty/invalid?</text><text fill="#000000" font-family="sans-serif" font-size="11" lengthAdjust="spacing" textLength="17" x="114.5" y="380.5655">yes</text><text fill="#000000" font-family="sans-serif" font-size="11" lengthAdjust="spacing" textLength="14" x="349.5" y="380.5655">no</text><rect fill="#F1F1F1" height="36.3441" rx="12.5" ry="12.5" style="stroke:#181818;stroke-width:0.5;" width="221" x="11" y="405.7885"/><text fill="#000000" font-family="sans-serif" font-size="12" lengthAdjust="spacing" textLength="201" x="21" y="428.6166">Display warning about configuration</text><rect fill="#F1F1F1" height="36.3441" rx="12.5" ry="12.5" style="stroke:#181818;stroke-width:0.5;" width="161" x="41" y="462.1326"/><text fill="#000000" font-family="sans-serif" font-size="12" lengthAdjust="spacing" textLength="141" x="51" y="484.9607">Use default configuration</text><rect fill="#F1F1F1" height="36.3441" rx="12.5" ry="12.5" style="stroke:#181818;stroke-width:0.5;" width="129" x="295" y="405.7885"/><text fill="#000000" font-family="sans-serif" font-size="12" lengthAdjust="spacing" textLength="109" x="305" y="428.6166">Parse configuration</text><rect fill="#F1F1F1" height="52.6882" rx="12.5" ry="12.5" style="stroke:#181818;stroke-width:0.5;" width="207" x="256" y="462.1326"/><text fill="#000000" font-family="sans-serif" font-size="12" lengthAdjust="spacing" textLength="187" x="266" y="484.9607">Set model/metamodel extensions</text><text fill="#000000" font-family="sans-serif" font-size="12" lengthAdjust="spacing" textLength="178" x="269" y="501.3048">and metamodel resolution rules</text><polygon fill="#F1F1F1" points="240.5,520.8208,252.5,532.8208,240.5,544.8208,228.5,532.8208,240.5,520.8208" style="stroke:#181818;stroke-width:0.5;"/><rect fill="#F1F1F1" height="36.3441" rx="12.5" ry="12.5" style="stroke:#181818;stroke-width:0.5;" width="309" x="86" y="564.8208"/><text fill="#000000" font-family="sans-serif" font-size="12" lengthAdjust="spacing" textLength="289" x="96" y="587.6489">Fetch PR file list and changed paths from GitHub API</text><rect fill="#F1F1F1" height="36.3441" rx="12.5" ry="12.5" style="stroke:#181818;stroke-width:0.5;" width="349" x="66" y="621.1649"/><text fill="#000000" font-family="sans-serif" font-size="12" lengthAdjust="spacing" textLength="329" x="76" y="643.993">Analyze each affected file &#8594; &lt;pr-model-file-cases-all.puml&gt;</text><rect fill="#F1F1F1" height="36.3441" rx="12.5" ry="12.5" style="stroke:#181818;stroke-width:0.5;" width="246" x="117.5" y="677.5091"/><text fill="#000000" font-family="sans-serif" font-size="12" lengthAdjust="spacing" textLength="226" x="127.5" y="700.3371">Publish results to GitHub PR as comment</text><ellipse cx="240.5" cy="744.8532" fill="none" rx="11" ry="11" style="stroke:#222222;stroke-width:1.0;"/><ellipse cx="240.5" cy="744.8532" fill="#222222" rx="6" ry="6" style="stroke:#222222;stroke-width:1.0;"/><line style="stroke:#181818;stroke-width:1.0;" x1="240.5" x2="240.5" y1="70.0679" y2="90.0679"/><polygon fill="#181818" points="236.5,80.0679,240.5,90.0679,244.5,80.0679,240.5,84.0679" style="stroke:#181818;stroke-width:1.0;"/><line style="stroke:#181818;stroke-width:1.0;" x1="240.5" x2="240.5" y1="126.412" y2="146.412"/><polygon fill="#181818" points="236.5,136.412,240.5,146.412,244.5,136.412,240.5,140.412" style="stroke:#181818;stroke-width:1.0;"/><line style="stroke:#181818;stroke-width:1.0;" x1="240.5" x2="240.5" y1="182.7561" y2="202.7561"/><polygon fill="#181818" points="236.5,192.7561,240.5,202.7561,244.5,192.7561,240.5,196.7561" style="stroke:#181818;stroke-width:1.0;"/><line style="stroke:#181818;stroke-width:1.0;" x1="240.5" x2="240.5" y1="239.1003" y2="259.1003"/><polygon fill="#181818" points="236.5,249.1003,240.5,259.1003,244.5,249.1003,240.5,253.1003" style="stroke:#181818;stroke-width:1.0;"/><line style="stroke:#181818;stroke-width:1.0;" x1="240.5" x2="240.5" y1="295.4444" y2="315.4444"/><polygon fill="#181818" points="236.5,305.4444,240.5,315.4444,244.5,305.4444,240.5,309.4444" style="stroke:#181818;stroke-width:1.0;"/><line style="stroke:#181818;stroke-width:1.0;" x1="121.5" x2="121.5" y1="442.1326" y2="462.1326"/><polygon fill="#181818" points="117.5,452.1326,121.5,462.1326,125.5,452.1326,121.5,456.1326" style="stroke:#181818;stroke-width:1.0;"/><line style="stroke:#181818;stroke-width:1.0;" x1="359.5" x2="359.5" y1="442.1326" y2="462.1326"/><polygon fill="#181818" points="355.5,452.1326,359.5,462.1326,363.5,452.1326,359.5,456.1326" style="stroke:#181818;stroke-width:1.0;"/><line style="stroke:#181818;stroke-width:1.0;" x1="131.5" x2="121.5" y1="383.7885" y2="383.7885"/><line style="stroke:#181818;stroke-width:1.0;" x1="121.5" x2="121.5" y1="383.7885" y2="405.7885"/><polygon fill="#181818" points="117.5,395.7885,121.5,405.7885,125.5,395.7885,121.5,399.7885" style="stroke:#181818;stroke-width:1.0;"/><line style="stroke:#181818;stroke-width:1.0;" x1="349.5" x2="359.5" y1="383.7885" y2="383.7885"/><line style="stroke:#181818;stroke-width:1.0;" x1="359.5" x2="359.5" y1="383.7885" y2="405.7885"/><polygon fill="#181818" points="355.5,395.7885,359.5,405.7885,363.5,395.7885,359.5,399.7885" style="stroke:#181818;stroke-width:1.0;"/><line style="stroke:#181818;stroke-width:1.0;" x1="121.5" x2="121.5" y1="498.4767" y2="532.8208"/><line style="stroke:#181818;stroke-width:1.0;" x1="121.5" x2="228.5" y1="532.8208" y2="532.8208"/><polygon fill="#181818" points="218.5,528.8208,228.5,532.8208,218.5,536.8208,222.5,532.8208" style="stroke:#181818;stroke-width:1.0;"/><line style="stroke:#181818;stroke-width:1.0;" x1="359.5" x2="359.5" y1="514.8208" y2="532.8208"/><line style="stroke:#181818;stroke-width:1.0;" x1="359.5" x2="252.5" y1="532.8208" y2="532.8208"/><polygon fill="#181818" points="262.5,528.8208,252.5,532.8208,262.5,536.8208,258.5,532.8208" style="stroke:#181818;stroke-width:1.0;"/><line style="stroke:#181818;stroke-width:1.0;" x1="240.5" x2="240.5" y1="351.7885" y2="371.7885"/><polygon fill="#181818" points="236.5,361.7885,240.5,371.7885,244.5,361.7885,240.5,365.7885" style="stroke:#181818;stroke-width:1.0;"/><line style="stroke:#181818;stroke-width:1.0;" x1="240.5" x2="240.5" y1="544.8208" y2="564.8208"/><polygon fill="#181818" points="236.5,554.8208,240.5,564.8208,244.5,554.8208,240.5,558.8208" style="stroke:#181818;stroke-width:1.0;"/><line style="stroke:#181818;stroke-width:1.0;" x1="240.5" x2="240.5" y1="601.1649" y2="621.1649"/><polygon fill="#181818" points="236.5,611.1649,240.5,621.1649,244.5,611.1649,240.5,615.1649" style="stroke:#181818;stroke-width:1.0;"/><line style="stroke:#181818;stroke-width:1.0;" x1="240.5" x2="240.5" y1="657.5091" y2="677.5091"/><polygon fill="#181818" points="236.5,667.5091,240.5,677.5091,244.5,667.5091,240.5,671.5091" style="stroke:#181818;stroke-width:1.0;"/><line style="stroke:#181818;stroke-width:1.0;" x1="240.5" x2="240.5" y1="713.8532" y2="733.8532"/><polygon fill="#181818" points="236.5,723.8532,240.5,733.8532,244.5,723.8532,240.5,727.8532" style="stroke:#181818;stroke-width:1.0;"/><!--SRC=[PP91RXin34NtSmeknml7Uxj8u3Pe4w01ZBXTDxH4pIZMI1EHiZivG0_G8_OafQPDYo0xINpavoSbNWB1_VPk2tl1B6M4FJqLYeQQXkjBqwolISW8xEw1JXG5sh64y2rNZWNII97iAjFV0q_Hz3b5_qoBJRF-adtNKOPFNcxA0RP6V8eCvvIFBgIp4XzwCiTKPe6Uq4BBgMH32yXqygouGk-B3nOmMg3lP8hyQLe3drCwWaiP7Z8EUF78AJw0IT7vhcIiOk1ye4tJU0VjBR_Y1i_iOxUYOPHfvUC9WxTN2v2U8hGJyQ81M5zx7WDESCOSbGOyr6vVQMmgzvK9B3aiuKsKWiRQcEPwEynwUvk_9u4XMGghWGJdaxeLYdK6hCJi_tyi4wTGPekv16ALYTOxtTX74jFNULRh4BokgQQQ7cD75aQKdi7bDFnRo-vMPxcD6APd0aBDHkTqwqhFDNxz-0dlnhoSbPVrQMcGYPSOmiLOXd2f-RjoKAs-DgOpO93qKbzRGLRBmw0VQ5E_LXf_0m00]--></g></svg>